<svg width="100" height="134" viewBox="0 0 100 134" fill="none" xmlns="http://www.w3.org/2000/svg">
<g clip-path="url(#clip0_26_13)">
<path d="M75 93.3073C78.6406 91.201 79.5651 85.4844 82.5208 82.5286C85.4766 79.5729 91.1927 78.6536 93.2995 75.0104C95.3776 71.4193 93.3427 66.0156 94.4383 61.9141C95.4948 57.9427 99.7656 54.2969 99.7656 50C99.7656 45.7031 95.2682 42.0521 94.2084 38.0911C93.1128 33.9896 95.149 28.5859 93.0716 24.9948C90.9659 21.3542 85.2513 20.4323 82.2956 17.4766C79.3399 14.5208 78.418 8.80469 74.7774 6.69792C71.1862 4.62005 65.7826 6.65529 61.681 5.55859C57.9427 4.4974 54.2969 0 50 0C45.7031 0 42.0573 4.4974 38.099 5.55729C33.9844 6.65104 28.5938 4.61719 24.9948 6.69271C21.3542 8.79948 20.4323 14.5156 17.4766 17.4687C14.5234 20.4245 8.80469 21.3464 6.69792 24.987C4.6198 28.5677 6.65626 33.9844 5.5599 38.0729C4.4974 42.0573 0.000213623 45.7031 0.000213623 50C0.000213623 54.2969 4.49761 57.9479 5.55751 61.9089C6.65308 66.0104 4.6161 71.4141 6.69318 75.0052C8.80209 78.6458 14.5156 79.5573 17.4688 82.526C20.4245 85.4818 21.3464 91.1979 24.9896 93.3073C28.5807 95.3851 33.9818 93.3485 38.0833 94.4451C42.0573 95.4948 45.7031 100 50 100C54.2969 100 57.9479 95.5026 61.9115 94.4427C66.0156 93.3594 71.4063 95.3906 75 93.3073ZM29.1667 50C29.1667 38.4714 38.4922 29.1667 50 29.1667C61.5078 29.1667 70.8333 38.4714 70.8333 50C70.8333 61.5026 61.5078 70.8333 50 70.8333C38.4922 70.8333 29.1667 61.5104 29.1667 50ZM0.447662 112.812C-0.398693 114.945 -0.0161407 117.365 1.45678 119.128C2.92969 120.885 5.24063 121.705 7.47761 121.249L19.2458 118.897L24.8266 129.904C25.901 132.031 28.0208 133.333 30.3906 133.333C30.4802 133.333 30.5636 133.33 30.6531 133.326C33.1271 133.229 35.2495 131.742 36.1844 129.451L44.9292 108.076C30.9422 106.868 18.3667 100.753 8.93959 91.4226L0.447662 112.812ZM91.0417 91.4323C81.6276 100.763 69.0495 106.878 55.0521 108.086L63.7969 129.461C64.7328 131.752 66.8542 133.237 69.3281 133.336C69.4271 133.099 69.2969 133.333 69.6094 133.333C71.9776 133.333 74.0964 132.038 75.1693 129.911L80.75 118.901L92.5182 121.254C94.7563 121.71 97.0677 120.89 98.5391 119.132C100.012 117.37 100.395 114.95 99.5482 112.817L91.0417 91.4323Z" fill="white"/>
</g>
<defs>
<clipPath id="clip0_26_13">
<rect width="100" height="133.333" fill="white"/>
</clipPath>
</defs>
</svg>
