<svg width="100" height="115" viewBox="0 0 100 115" fill="none" xmlns="http://www.w3.org/2000/svg">
<g clip-path="url(#clip0_25_5)">
<path d="M50.0223 31.4732C35.8259 31.4732 24.375 42.9241 24.375 57.1206C24.375 71.317 35.8259 82.7679 50.0223 82.7679C64.2187 82.7679 75.6696 71.317 75.6696 57.1206C75.6696 42.9241 64.2187 31.4732 50.0223 31.4732ZM50.0223 73.7947C40.8482 73.7947 33.3482 66.317 33.3482 57.1206C33.3482 47.9241 40.8259 40.4465 50.0223 40.4465C59.2187 40.4465 66.6964 47.9241 66.6964 57.1206C66.6964 66.317 59.1964 73.7947 50.0223 73.7947V73.7947ZM82.7009 30.4241C82.7009 33.75 80.0223 36.4063 76.7187 36.4063C73.3929 36.4063 70.7366 33.7277 70.7366 30.4241C70.7366 27.1206 73.4152 24.442 76.7187 24.442C80.0223 24.442 82.7009 27.1206 82.7009 30.4241ZM99.6875 36.4956C99.308 28.4822 97.4777 21.384 91.6071 15.5357C85.7589 9.68753 78.6607 7.85717 70.6473 7.45538C62.3884 6.98663 37.6339 6.98663 29.375 7.45538C21.3839 7.83485 14.2857 9.6652 8.41518 15.5134C2.54465 21.3616 0.736609 28.4598 0.334824 36.4732C-0.133926 44.7322 -0.133926 69.4866 0.334824 77.7456C0.714288 85.7589 2.54465 92.8572 8.41518 98.7054C14.2857 104.554 21.3616 106.384 29.375 106.786C37.6339 107.254 62.3884 107.254 70.6473 106.786C78.6607 106.406 85.7589 104.576 91.6071 98.7054C97.4553 92.8572 99.2857 85.7589 99.6875 77.7456C100.156 69.4866 100.156 44.7545 99.6875 36.4956V36.4956ZM89.0178 86.6072C87.2768 90.9822 83.9062 94.3527 79.5089 96.1161C72.9241 98.7277 57.2991 98.125 50.0223 98.125C42.7455 98.125 27.0982 98.7054 20.5357 96.1161C16.1607 94.375 12.7902 91.0045 11.0268 86.6072C8.41518 80.0223 9.01786 64.3973 9.01786 57.1206C9.01786 49.8438 8.4375 34.1965 11.0268 27.634C12.7679 23.259 16.1384 19.8884 20.5357 18.125C27.1205 15.5134 42.7455 16.1161 50.0223 16.1161C57.2991 16.1161 72.9464 15.5357 79.5089 18.125C83.8839 19.8661 87.2545 23.2366 89.0178 27.634C91.6295 34.2188 91.0268 49.8438 91.0268 57.1206C91.0268 64.3973 91.6295 80.0447 89.0178 86.6072Z" fill="white"/>
</g>
<defs>
<clipPath id="clip0_25_5">
<rect width="100" height="114.286" fill="white"/>
</clipPath>
</defs>
</svg>
