<svg width="100" height="115" viewBox="0 0 100 115" fill="none" xmlns="http://www.w3.org/2000/svg">
<path d="M92.8571 7.14288H7.12054C3.19196 7.14288 0 10.3795 0 14.3527V99.9331C0 103.906 3.19196 107.143 7.12054 107.143H92.8571C96.7857 107.143 100 103.906 100 99.9331V14.3527C100 10.3795 96.7857 7.14288 92.8571 7.14288ZM30.2232 92.8572H15.4018V45.134H30.2455V92.8572H30.2232ZM22.8125 38.6161C18.058 38.6161 14.2188 34.7545 14.2188 30.0223C14.2188 25.2902 18.058 21.4286 22.8125 21.4286C27.5446 21.4286 31.4062 25.2902 31.4062 30.0223C31.4062 34.7768 27.567 38.6161 22.8125 38.6161V38.6161ZM85.7812 92.8572H70.9598V69.6429C70.9598 64.1072 70.8482 56.9866 63.2589 56.9866C55.5357 56.9866 54.3527 63.0134 54.3527 69.2411V92.8572H39.5313V45.134H53.75V51.6518H53.9509C55.9375 47.9018 60.7813 43.9509 67.9911 43.9509C82.9911 43.9509 85.7812 53.8393 85.7812 66.6964V92.8572V92.8572Z" fill="white"/>
</svg>
