<svg width="100" height="100" viewBox="0 0 100 100" fill="none" xmlns="http://www.w3.org/2000/svg">
<g clip-path="url(#clip0_26_17)">
<path d="M99.9219 7.1992L87.4219 88.2734C87.1289 90.1746 85.9814 91.832 84.3027 92.7754C83.3566 93.3064 82.2969 93.5756 81.2402 93.5756C80.4223 93.5756 79.6154 93.4163 78.8398 93.0928L54.8945 83.1123L44.9609 98.0127C44.1992 99.3164 42.9297 100 41.5625 100C39.3164 100 37.5 98.1836 37.5 95.9375V77.1523C37.5 75.7627 37.9633 74.4121 38.8168 73.3164L81.25 18.75L23.8867 70.3711L3.84571 62.0117C1.64805 61.0937 0.158693 59.0234 0.0122088 56.4648C-0.134276 53.9062 1.08037 51.832 3.14893 50.6504L90.6489 0.826154C92.7368 -0.36701 95.313 -0.257245 97.2896 1.10076C99.2661 2.45877 100.293 4.82811 99.9219 7.1992Z" fill="white"/>
</g>
<defs>
<clipPath id="clip0_26_17">
<rect width="100" height="100" fill="white"/>
</clipPath>
</defs>
</svg>
