<svg width="100" height="100" viewBox="0 0 100 100" fill="none" xmlns="http://www.w3.org/2000/svg">
<g clip-path="url(#clip0_26_15)">
<path d="M42.1875 20.3125C39.6094 20.3125 37.5 22.4219 37.5 25C37.5 27.5781 39.5996 29.6875 42.1875 29.6875C57.6973 29.6875 70.3125 42.3027 70.3125 57.8125C70.3125 60.4102 72.4219 62.5 75 62.5C77.5781 62.5 79.6875 60.4004 79.6875 57.8125C79.6875 37.1289 62.8711 20.3125 42.1875 20.3125ZM43.75 0C40.293 0 37.5 2.79492 37.5 6.25C37.5 9.70508 40.2988 12.5 43.75 12.5C67.8711 12.5 87.5 32.1289 87.5 56.25C87.5 59.7051 90.2988 62.5 93.75 62.5C97.2012 62.5 100 59.7051 100 56.25C100 25.2344 74.7656 0 43.75 0ZM36.8945 67.5781L42.2402 62.2324C42.7529 62.3545 43.2283 62.5266 43.7654 62.5266C47.2322 62.5266 50.0135 59.7414 50.0135 56.2766C50.0135 52.8352 47.2322 50.0246 43.7654 50.0246C40.324 50.0246 37.5174 52.8332 37.5174 56.2766C37.5174 56.8381 37.6756 57.302 37.8221 57.8146L32.4609 63.1641L9.64258 40.332C8.22656 38.916 5.71289 39.1602 4.93555 40.918C-3.21875 56.1289 -0.90039 75.4297 11.918 88.2617C24.7344 101.078 44.0664 103.398 59.2617 95.2441C61.0439 94.2676 61.2891 91.7773 59.8477 90.3613L36.8945 67.5781Z" fill="white"/>
</g>
<defs>
<clipPath id="clip0_26_15">
<rect width="100" height="100" fill="white"/>
</clipPath>
</defs>
</svg>
